<svg width="3081" height="1929" viewBox="0 0 3081 1929" fill="none" xmlns="http://www.w3.org/2000/svg">
<mask id="mask0_0_1" style="mask-type:luminance" maskUnits="userSpaceOnUse" x="368" y="1415" width="1473" height="179">
<path d="M368 1415.15H1840.58V1594H368V1415.15Z" fill="white"/>
</mask>
<g mask="url(#mask0_0_1)">
<mask id="mask1_0_1" style="mask-type:luminance" maskUnits="userSpaceOnUse" x="368" y="1415" width="1473" height="179">
<path d="M460.654 1415.15H1747.43C1771.96 1415.15 1795.58 1424.55 1812.96 1441.32C1830.35 1458.09 1840.09 1480.88 1840.09 1504.54C1840.09 1528.28 1830.35 1551 1812.96 1567.76C1795.58 1584.53 1771.96 1594 1747.43 1594H460.654C436.054 1594 412.505 1584.53 395.123 1567.76C377.742 1551 368 1528.28 368 1504.54C368 1480.88 377.742 1458.09 395.123 1441.32C412.505 1424.55 436.054 1415.15 460.654 1415.15Z" fill="white"/>
</mask>
<g mask="url(#mask1_0_1)">
<path d="M368 1415.15H1839.88V1594H368V1415.15Z" fill="#C1FF72"/>
</g>
</g>
<mask id="mask2_0_1" style="mask-type:luminance" maskUnits="userSpaceOnUse" x="2181" y="436" width="622" height="180">
<path d="M2181.13 436.404H2803V615.25H2181.13V436.404Z" fill="white"/>
</mask>
<g mask="url(#mask2_0_1)">
<mask id="mask3_0_1" style="mask-type:luminance" maskUnits="userSpaceOnUse" x="2181" y="436" width="622" height="180">
<path d="M2273.78 436.404H2710.14C2734.74 436.404 2758.28 445.87 2775.67 462.639C2793.05 479.408 2802.79 502.127 2802.79 525.861C2802.79 549.526 2793.05 572.313 2775.67 589.082C2758.28 605.851 2734.74 615.25 2710.14 615.25H2273.78C2249.18 615.25 2225.63 605.851 2208.25 589.082C2190.87 572.313 2181.13 549.526 2181.13 525.861C2181.13 502.127 2190.87 479.408 2208.25 462.639C2225.63 445.87 2249.18 436.404 2273.78 436.404Z" fill="white"/>
</mask>
<g mask="url(#mask3_0_1)">
<path d="M2181.13 436.404H2803V615.25H2181.13V436.404Z" fill="#5CE1E6"/>
</g>
</g>
<path d="M438.079 383H697.958C801.475 383 879.621 400.716 932.326 436.011C985.171 471.172 1011.66 533.852 1011.66 623.985C1011.66 684.773 1003.53 733.186 987.273 769.226C971.013 805.13 940.596 833.191 896.162 853.341L1025.68 1294.47H810.096L706.088 886.067H646.655V1294.47H438.079V383ZM704.967 770.037C747.018 770.037 776.314 759.421 792.995 738.122C809.815 716.688 818.226 684.57 818.226 641.836C818.226 600.59 810.376 569.622 794.677 549.066C779.118 528.511 752.415 518.233 714.498 518.233H646.655V770.037H704.967Z" fill="#5CE1E6"/>
<path d="M1118.76 784.014V413.475H1341.63V443.768H1153.8V583.328H1329.86V613.62H1153.8V753.722H1345.27V784.014H1118.76Z" fill="#FF0000"/>
<path d="M1432.73 784.014H1396L1535.62 413.475H1573.18L1713.07 784.014H1676.07L1555.8 457.291H1553.28L1432.73 784.014ZM1459.08 642.019H1649.72V672.311H1459.08V642.019Z" fill="#FF0000"/>
<path d="M2077.91 413.475V784.014H2043.7L1816.9 473.789H1813.82V784.014H1778.78V413.475H1812.7L2040.34 724.241H2043.42V413.475H2077.91Z" fill="#FF0000"/>
<path d="M1419.56 1021.19H1384.24C1381.58 1008.61 1376.81 996.849 1369.94 986.03C1363.22 975.212 1354.66 965.745 1344.43 957.631C1334.34 949.517 1322.71 943.297 1309.67 938.969C1296.56 934.507 1282.55 932.208 1267.62 932.208C1243.3 932.208 1221.15 938.361 1201.18 950.599C1181.13 962.703 1165.15 980.553 1153.24 1004.15C1141.46 1027.82 1135.58 1056.62 1135.58 1090.7C1135.58 1125.19 1141.46 1154.19 1153.24 1177.79C1165.15 1201.25 1181.13 1219.04 1201.18 1231.07C1221.15 1243.18 1243.3 1249.19 1267.62 1249.19C1282.55 1249.19 1296.56 1246.96 1309.67 1242.43C1322.71 1237.97 1334.34 1231.75 1344.43 1223.77C1354.66 1215.66 1363.22 1206.19 1369.94 1195.37C1376.81 1184.55 1381.58 1172.85 1384.24 1160.21H1419.56C1416.34 1177.18 1410.45 1193.07 1401.9 1207.81C1393.49 1222.42 1382.63 1235.26 1369.38 1246.22C1356.28 1257.04 1341.14 1265.62 1323.97 1271.91C1306.73 1278 1287.94 1281.11 1267.62 1281.11C1235.24 1281.11 1206.57 1273.27 1181.55 1257.58C1156.46 1241.89 1136.84 1219.92 1122.68 1191.58C1108.45 1163.12 1101.37 1129.51 1101.37 1090.7C1101.37 1051.96 1108.45 1018.35 1122.68 989.817C1136.84 961.35 1156.46 939.375 1181.55 923.823C1206.57 908.136 1235.24 900.293 1267.62 900.293C1287.94 900.293 1306.73 903.403 1323.97 909.488C1341.14 915.642 1356.28 924.229 1369.38 935.183C1382.63 946.204 1393.49 958.984 1401.9 973.589C1410.45 988.194 1416.34 1004.08 1419.56 1021.19Z" fill="#FF0000"/>
<path d="M1817.09 1090.7C1817.09 1129.31 1809.95 1162.85 1795.79 1191.31C1781.56 1219.85 1761.94 1241.89 1736.92 1257.58C1712.04 1273.27 1683.44 1281.11 1651.13 1281.11C1618.61 1281.11 1589.81 1273.27 1564.78 1257.58C1539.9 1241.89 1520.35 1219.85 1506.19 1191.31C1491.96 1162.85 1484.89 1129.31 1484.89 1090.7C1484.89 1052.16 1491.96 1018.62 1506.19 990.087C1520.35 961.418 1539.97 939.375 1565.06 923.823C1590.09 908.136 1618.75 900.293 1651.13 900.293C1683.44 900.293 1712.04 908.136 1736.92 923.823C1761.94 939.375 1781.56 961.418 1795.79 990.087C1809.95 1018.62 1817.09 1052.16 1817.09 1090.7ZM1783.17 1090.7C1783.17 1057.57 1777.36 1029.17 1765.79 1005.5C1754.16 981.703 1738.46 963.582 1718.69 951.14C1698.86 938.564 1676.36 932.208 1651.13 932.208C1625.9 932.208 1603.26 938.564 1583.29 951.14C1563.45 963.582 1547.75 981.635 1536.19 1005.23C1524.77 1028.9 1519.09 1057.37 1519.09 1090.7C1519.09 1123.9 1524.77 1152.3 1536.19 1175.9C1547.75 1199.56 1563.45 1217.68 1583.29 1230.26C1603.05 1242.91 1625.69 1249.19 1651.13 1249.19C1676.36 1249.19 1698.86 1242.97 1718.69 1230.53C1738.67 1217.96 1754.37 1199.83 1765.79 1176.17C1777.36 1152.37 1783.17 1123.9 1783.17 1090.7Z" fill="#C1FF72"/>
<path d="M2014.39 1275.97H1901.97V905.431H2021.11C2057.91 905.431 2089.31 912.869 2115.31 927.609C2141.45 942.214 2161.43 963.311 2175.3 990.898C2189.11 1018.35 2196.05 1051.35 2196.05 1089.89C2196.05 1128.7 2188.9 1161.97 2174.74 1189.69C2160.52 1217.48 2139.84 1238.85 2112.79 1253.79C2085.66 1268.6 2052.86 1275.97 2014.39 1275.97ZM1937.01 1245.68H2012.42C2045.5 1245.68 2073.12 1239.39 2095.41 1226.74C2117.62 1214.17 2134.23 1196.18 2145.31 1172.92C2156.52 1149.66 2162.13 1122.01 2162.13 1089.89C2161.92 1057.84 2156.38 1030.32 2145.59 1007.4C2134.93 984.339 2118.96 966.691 2097.65 954.385C2076.48 941.944 2050.34 935.723 2019.15 935.723H1937.01V1245.68Z" fill="#FF0000"/>
<path d="M2280.84 1275.97V905.431H2503.71V935.723H2315.88V1075.28H2491.94V1105.58H2315.88V1245.68H2507.36V1275.97H2280.84Z" fill="#FF0000"/>
<rect x="40" y="4" width="30.3594" height="30" rx="3" fill="#444444"/>
<rect x="40.5" y="4.5" width="29.3594" height="29" rx="2.5" stroke="white" stroke-opacity="0.0980392"/>
<path d="M51.0938 17.3437L50.2656 17.5781C50.2135 17.4401 50.1367 17.306 50.0352 17.1758C49.9362 17.043 49.8008 16.9336 49.6289 16.8477C49.457 16.7617 49.237 16.7187 48.9688 16.7187C48.6016 16.7187 48.2956 16.8034 48.0508 16.9727C47.8086 17.1393 47.6875 17.3516 47.6875 17.6094C47.6875 17.8385 47.7708 18.0195 47.9375 18.1523C48.1042 18.2852 48.3646 18.3958 48.7188 18.4844L49.6094 18.7031C50.1458 18.8333 50.5456 19.0326 50.8086 19.3008C51.0716 19.5664 51.2031 19.9089 51.2031 20.3281C51.2031 20.6719 51.1042 20.9792 50.9063 21.25C50.7109 21.5208 50.4375 21.7344 50.0859 21.8906C49.7344 22.0469 49.3255 22.125 48.8594 22.125C48.2474 22.125 47.7409 21.9922 47.3398 21.7266C46.9388 21.4609 46.6849 21.0729 46.5781 20.5625L47.4531 20.3437C47.5365 20.6667 47.694 20.9089 47.9258 21.0703C48.1602 21.2318 48.4661 21.3125 48.8438 21.3125C49.2734 21.3125 49.6146 21.2214 49.8672 21.0391C50.1224 20.8542 50.25 20.6328 50.25 20.375C50.25 20.1667 50.1771 19.9922 50.0313 19.8516C49.8854 19.7083 49.6615 19.6016 49.3594 19.5312L48.3594 19.2969C47.8099 19.1667 47.4062 18.9648 47.1484 18.6914C46.8932 18.4154 46.7656 18.0703 46.7656 17.6562C46.7656 17.3177 46.8607 17.0182 47.0508 16.7578C47.2435 16.4974 47.5052 16.293 47.8359 16.1445C48.1693 15.9961 48.5469 15.9219 48.9688 15.9219C49.5625 15.9219 50.0286 16.0521 50.3672 16.3125C50.7083 16.5729 50.9505 16.9167 51.0938 17.3437ZM57.4971 16L55.2783 22H54.3408L52.1221 16H53.1221L54.7783 20.7812H54.8408L56.4971 16H57.4971ZM60.9209 24.375C60.4756 24.375 60.0928 24.3177 59.7725 24.2031C59.4521 24.0911 59.1852 23.9427 58.9717 23.7578C58.7607 23.5755 58.5928 23.3802 58.4678 23.1719L59.2021 22.6563C59.2855 22.7656 59.391 22.8906 59.5186 23.0312C59.6462 23.1745 59.8206 23.2982 60.042 23.4023C60.266 23.5091 60.5589 23.5625 60.9209 23.5625C61.4053 23.5625 61.805 23.4453 62.1201 23.2109C62.4352 22.9766 62.5928 22.6094 62.5928 22.1094V20.8906H62.5146C62.4469 21 62.3506 21.1354 62.2256 21.2969C62.1032 21.4557 61.9261 21.5977 61.6943 21.7227C61.4652 21.8451 61.1553 21.9062 60.7646 21.9062C60.2803 21.9062 59.8454 21.7917 59.46 21.5625C59.0771 21.3333 58.7738 21 58.5498 20.5625C58.3285 20.125 58.2178 19.5937 58.2178 18.9687C58.2178 18.3542 58.3258 17.819 58.542 17.3633C58.7581 16.9049 59.0589 16.5508 59.4443 16.3008C59.8298 16.0482 60.2751 15.9219 60.7803 15.9219C61.1709 15.9219 61.4808 15.987 61.71 16.1172C61.9417 16.2448 62.1188 16.3906 62.2412 16.5547C62.3662 16.7161 62.4626 16.849 62.5303 16.9531H62.624V16H63.5146V22.1719C63.5146 22.6875 63.3975 23.1068 63.1631 23.4297C62.9313 23.7552 62.6188 23.9935 62.2256 24.1445C61.835 24.2982 61.4001 24.375 60.9209 24.375ZM60.8896 21.0781C61.2594 21.0781 61.5719 20.9935 61.8271 20.8242C62.0824 20.6549 62.2764 20.4115 62.4092 20.0938C62.542 19.776 62.6084 19.3958 62.6084 18.9531C62.6084 18.5208 62.5433 18.1393 62.4131 17.8086C62.2829 17.4779 62.0902 17.2187 61.835 17.0312C61.5798 16.8437 61.2646 16.75 60.8896 16.75C60.499 16.75 60.1735 16.849 59.9131 17.0469C59.6553 17.2448 59.4613 17.5104 59.3311 17.8438C59.2035 18.1771 59.1396 18.5469 59.1396 18.9531C59.1396 19.3698 59.2048 19.7383 59.335 20.0586C59.4678 20.3763 59.6631 20.6263 59.9209 20.8086C60.1813 20.9883 60.5042 21.0781 60.8896 21.0781Z" fill="white"/>
</svg>
